<svg id="visual" viewBox="0 0 900 600" width="900" height="600" xmlns="http://www.w3.org/2000/svg" xmlns:xlink="http://www.w3.org/1999/xlink" version="1.1"><g stroke-width="1" stroke-linejoin="bevel"><path d="M465 334L519 232L431 266Z" fill="#dadada" stroke="#dadada"></path><path d="M519 232L426 201L431 266Z" fill="#c7c7c7" stroke="#c7c7c7"></path><path d="M465 334L622 332L519 232Z" fill="#c9c9c9" stroke="#c9c9c9"></path><path d="M380 406L496 426L465 334Z" fill="#c2c2c2" stroke="#c2c2c2"></path><path d="M465 334L611 383L622 332Z" fill="#c9c9c9" stroke="#c9c9c9"></path><path d="M622 332L604 171L519 232Z" fill="#d0d0d0" stroke="#d0d0d0"></path><path d="M518 105L402 136L426 201Z" fill="#c7c7c7" stroke="#c7c7c7"></path><path d="M496 426L611 383L465 334Z" fill="#c9c9c9" stroke="#c9c9c9"></path><path d="M298 332L380 406L431 266Z" fill="#cecece" stroke="#cecece"></path><path d="M431 266L380 406L465 334Z" fill="#d3d3d3" stroke="#d3d3d3"></path><path d="M518 105L426 201L519 232Z" fill="#d8d8d8" stroke="#d8d8d8"></path><path d="M260 205L298 332L431 266Z" fill="#cecece" stroke="#cecece"></path><path d="M604 171L518 105L519 232Z" fill="#d0d0d0" stroke="#d0d0d0"></path><path d="M430 477L496 464L496 426Z" fill="#d0d0d0" stroke="#d0d0d0"></path><path d="M496 426L592 495L611 383Z" fill="#d5d5d5" stroke="#d5d5d5"></path><path d="M611 383L665 338L622 332Z" fill="#d0d0d0" stroke="#d0d0d0"></path><path d="M622 332L665 338L604 171Z" fill="#c4c4c4" stroke="#c4c4c4"></path><path d="M260 205L431 266L426 201Z" fill="#cecece" stroke="#cecece"></path><path d="M328 539L430 477L380 406Z" fill="#c4c4c4" stroke="#c4c4c4"></path><path d="M380 406L430 477L496 426Z" fill="#d3d3d3" stroke="#d3d3d3"></path><path d="M737 171L639 115L604 171Z" fill="#d5d5d5" stroke="#d5d5d5"></path><path d="M604 171L639 115L518 105Z" fill="#d0d0d0" stroke="#d0d0d0"></path><path d="M468 600L592 495L496 464Z" fill="#cccccc" stroke="#cccccc"></path><path d="M496 464L592 495L496 426Z" fill="#d8d8d8" stroke="#d8d8d8"></path><path d="M611 383L712 380L665 338Z" fill="#d5d5d5" stroke="#d5d5d5"></path><path d="M402 136L260 205L426 201Z" fill="#dadada" stroke="#dadada"></path><path d="M197 404L280 403L298 332Z" fill="#c4c4c4" stroke="#c4c4c4"></path><path d="M298 332L280 403L380 406Z" fill="#cccccc" stroke="#cccccc"></path><path d="M721 499L712 380L611 383Z" fill="#d8d8d8" stroke="#d8d8d8"></path><path d="M665 338L737 171L604 171Z" fill="#c9c9c9" stroke="#c9c9c9"></path><path d="M771 224L737 171L665 338Z" fill="#c2c2c2" stroke="#c2c2c2"></path><path d="M260 205L209 274L298 332Z" fill="#c9c9c9" stroke="#c9c9c9"></path><path d="M581 0L480 0L518 105Z" fill="#cccccc" stroke="#cccccc"></path><path d="M518 105L480 0L402 136Z" fill="#d8d8d8" stroke="#d8d8d8"></path><path d="M402 136L262 75L260 205Z" fill="#cecece" stroke="#cecece"></path><path d="M581 0L518 105L639 115Z" fill="#cccccc" stroke="#cccccc"></path><path d="M795 312L771 224L665 338Z" fill="#d3d3d3" stroke="#d3d3d3"></path><path d="M480 0L412 0L402 136Z" fill="#c4c4c4" stroke="#c4c4c4"></path><path d="M707 0L581 0L639 115Z" fill="#c7c7c7" stroke="#c7c7c7"></path><path d="M280 403L328 539L380 406Z" fill="#d3d3d3" stroke="#d3d3d3"></path><path d="M430 477L468 600L496 464Z" fill="#c4c4c4" stroke="#c4c4c4"></path><path d="M239 489L328 539L280 403Z" fill="#c7c7c7" stroke="#c7c7c7"></path><path d="M260 205L187 233L209 274Z" fill="#cccccc" stroke="#cccccc"></path><path d="M209 274L197 404L298 332Z" fill="#d5d5d5" stroke="#d5d5d5"></path><path d="M128 163L187 233L260 205Z" fill="#d8d8d8" stroke="#d8d8d8"></path><path d="M301 0L262 75L402 136Z" fill="#c4c4c4" stroke="#c4c4c4"></path><path d="M712 380L795 312L665 338Z" fill="#c4c4c4" stroke="#c4c4c4"></path><path d="M787 420L795 312L712 380Z" fill="#dadada" stroke="#dadada"></path><path d="M110 280L197 404L209 274Z" fill="#dadada" stroke="#dadada"></path><path d="M680 600L721 499L592 495Z" fill="#c9c9c9" stroke="#c9c9c9"></path><path d="M592 495L721 499L611 383Z" fill="#c7c7c7" stroke="#c7c7c7"></path><path d="M387 600L468 600L430 477Z" fill="#c7c7c7" stroke="#c7c7c7"></path><path d="M262 75L229 87L260 205Z" fill="#d0d0d0" stroke="#d0d0d0"></path><path d="M229 0L229 87L262 75Z" fill="#c2c2c2" stroke="#c2c2c2"></path><path d="M809 93L735 72L737 171Z" fill="#cecece" stroke="#cecece"></path><path d="M737 171L735 72L639 115Z" fill="#cecece" stroke="#cecece"></path><path d="M809 93L737 171L771 224Z" fill="#d8d8d8" stroke="#d8d8d8"></path><path d="M197 404L239 489L280 403Z" fill="#cccccc" stroke="#cccccc"></path><path d="M721 499L787 420L712 380Z" fill="#c4c4c4" stroke="#c4c4c4"></path><path d="M321 600L387 600L328 539Z" fill="#d0d0d0" stroke="#d0d0d0"></path><path d="M328 539L387 600L430 477Z" fill="#d0d0d0" stroke="#d0d0d0"></path><path d="M412 0L301 0L402 136Z" fill="#cccccc" stroke="#cccccc"></path><path d="M468 600L601 600L592 495Z" fill="#d8d8d8" stroke="#d8d8d8"></path><path d="M735 72L707 0L639 115Z" fill="#c2c2c2" stroke="#c2c2c2"></path><path d="M230 600L321 600L328 539Z" fill="#d0d0d0" stroke="#d0d0d0"></path><path d="M900 214L809 93L771 224Z" fill="#dadada" stroke="#dadada"></path><path d="M735 72L801 0L707 0Z" fill="#d0d0d0" stroke="#d0d0d0"></path><path d="M601 600L680 600L592 495Z" fill="#c7c7c7" stroke="#c7c7c7"></path><path d="M721 499L831 501L787 420Z" fill="#c4c4c4" stroke="#c4c4c4"></path><path d="M128 163L110 280L187 233Z" fill="#dadada" stroke="#dadada"></path><path d="M187 233L110 280L209 274Z" fill="#c2c2c2" stroke="#c2c2c2"></path><path d="M117 524L230 600L239 489Z" fill="#dadada" stroke="#dadada"></path><path d="M100 71L128 163L229 87Z" fill="#cecece" stroke="#cecece"></path><path d="M229 87L128 163L260 205Z" fill="#c2c2c2" stroke="#c2c2c2"></path><path d="M301 0L229 0L262 75Z" fill="#cccccc" stroke="#cccccc"></path><path d="M781 600L831 501L721 499Z" fill="#c4c4c4" stroke="#c4c4c4"></path><path d="M900 366L900 298L795 312Z" fill="#c9c9c9" stroke="#c9c9c9"></path><path d="M795 312L900 214L771 224Z" fill="#c2c2c2" stroke="#c2c2c2"></path><path d="M117 524L239 489L197 404Z" fill="#d5d5d5" stroke="#d5d5d5"></path><path d="M239 489L230 600L328 539Z" fill="#c7c7c7" stroke="#c7c7c7"></path><path d="M900 366L795 312L787 420Z" fill="#c9c9c9" stroke="#c9c9c9"></path><path d="M900 298L900 214L795 312Z" fill="#d5d5d5" stroke="#d5d5d5"></path><path d="M900 76L801 0L809 93Z" fill="#d8d8d8" stroke="#d8d8d8"></path><path d="M809 93L801 0L735 72Z" fill="#d3d3d3" stroke="#d3d3d3"></path><path d="M900 482L900 366L787 420Z" fill="#d5d5d5" stroke="#d5d5d5"></path><path d="M0 266L63 362L110 280Z" fill="#d5d5d5" stroke="#d5d5d5"></path><path d="M110 280L63 362L197 404Z" fill="#d3d3d3" stroke="#d3d3d3"></path><path d="M680 600L781 600L721 499Z" fill="#d5d5d5" stroke="#d5d5d5"></path><path d="M831 501L900 482L787 420Z" fill="#cccccc" stroke="#cccccc"></path><path d="M229 0L100 71L229 87Z" fill="#d0d0d0" stroke="#d0d0d0"></path><path d="M0 175L0 266L110 280Z" fill="#d5d5d5" stroke="#d5d5d5"></path><path d="M63 362L117 524L197 404Z" fill="#c2c2c2" stroke="#c2c2c2"></path><path d="M900 600L900 482L831 501Z" fill="#c9c9c9" stroke="#c9c9c9"></path><path d="M900 214L900 76L809 93Z" fill="#d8d8d8" stroke="#d8d8d8"></path><path d="M117 524L132 600L230 600Z" fill="#c9c9c9" stroke="#c9c9c9"></path><path d="M0 600L132 600L117 524Z" fill="#d3d3d3" stroke="#d3d3d3"></path><path d="M0 175L110 280L128 163Z" fill="#d3d3d3" stroke="#d3d3d3"></path><path d="M63 362L0 423L117 524Z" fill="#cecece" stroke="#cecece"></path><path d="M100 71L0 175L128 163Z" fill="#c7c7c7" stroke="#c7c7c7"></path><path d="M900 76L900 0L801 0Z" fill="#c4c4c4" stroke="#c4c4c4"></path><path d="M229 0L65 0L100 71Z" fill="#cccccc" stroke="#cccccc"></path><path d="M100 71L0 90L0 175Z" fill="#c7c7c7" stroke="#c7c7c7"></path><path d="M0 266L0 423L63 362Z" fill="#d3d3d3" stroke="#d3d3d3"></path><path d="M781 600L900 600L831 501Z" fill="#cecece" stroke="#cecece"></path><path d="M65 0L0 90L100 71Z" fill="#dadada" stroke="#dadada"></path><path d="M0 423L0 486L117 524Z" fill="#d0d0d0" stroke="#d0d0d0"></path><path d="M65 0L0 0L0 90Z" fill="#cecece" stroke="#cecece"></path><path d="M0 486L0 600L117 524Z" fill="#d0d0d0" stroke="#d0d0d0"></path></g></svg>